<svg width="24" height="24" viewBox="0 0 24 24" fill="none" xmlns="http://www.w3.org/2000/svg">
<g clip-path="url(#clip0_6_155)">
<path d="M6.06055 3C5.50391 3 5.02539 3.01953 4.73242 3.06836C4.3418 3.14648 4 3.40039 4 3.89844C4 4.40625 4.36133 4.72852 4.86914 4.72852C5.20117 4.72852 5.52344 4.70898 5.97266 4.70898C9.44922 4.70898 10.9824 5.89062 10.9727 9.42578L10.9629 16.1055L11.0508 18.7617L9.08789 16.6133L5.89453 13.4102C5.73828 13.2539 5.50391 13.1758 5.26953 13.1758C4.79102 13.1758 4.42969 13.5469 4.42969 14.0254C4.42969 14.2598 4.51758 14.4648 4.70312 14.6602L11.1875 21.1543C11.3731 21.3496 11.5977 21.4473 11.832 21.4473C12.0762 21.4473 12.3008 21.3496 12.4863 21.1543L18.9707 14.6602C19.1562 14.4648 19.2441 14.2598 19.2441 14.0254C19.2441 13.5469 18.8828 13.1758 18.3945 13.1758C18.1699 13.1758 17.9355 13.2539 17.7793 13.4102L14.5762 16.6133L12.6328 18.752L12.7109 16.1055V9.33789C12.7109 4.79688 10.582 3 6.06055 3Z" fill="black" fill-opacity="0.85"/>
</g>
<defs>
<clipPath id="clip0_6_155">
<rect width="15.6055" height="18.4473" fill="white" transform="translate(4 3)"/>
</clipPath>
</defs>
</svg>
