<svg width="12" height="8" viewBox="0 0 12 8" fill="none" xmlns="http://www.w3.org/2000/svg">
<path d="M10.8469 0.545288H7.66876V1.46873H10.8469V0.545288Z" fill="white"/>
<path d="M11.5125 3.05314C11.2641 2.68283 10.95 2.41095 10.5656 2.2422C10.1859 2.06876 9.75467 1.98439 9.27186 1.98908C8.4703 1.98908 7.81874 2.2422 7.31249 2.74845C6.81093 3.2547 6.5578 3.98126 6.5578 4.93283C6.5578 5.94533 6.83905 6.67658 7.39686 7.12658C7.95467 7.57658 8.59686 7.80158 9.32811 7.80158C10.2141 7.80158 10.8984 7.53439 11.3906 7.00001C11.7047 6.66251 11.8828 6.3297 11.9203 6.00626H10.4578C10.3734 6.17033 10.275 6.29689 10.1625 6.38595C9.95624 6.5547 9.68905 6.63908 9.36561 6.63908C9.05624 6.63908 8.79374 6.56876 8.57343 6.43283C8.21249 6.21251 8.02499 5.82345 8.00155 5.27501H11.9953C12.0047 4.80158 11.9859 4.44064 11.9484 4.18751C11.8828 3.75626 11.7375 3.37658 11.5125 3.05314ZM8.03905 4.32814C8.0953 3.97189 8.22186 3.69064 8.42343 3.4797C8.62499 3.27345 8.91093 3.16564 9.27655 3.16564C9.61405 3.16564 9.89999 3.26408 10.1297 3.46095C10.3547 3.65783 10.4812 3.94845 10.5094 4.32814H8.03905Z" fill="white"/>
<path d="M4.93594 3.63911C5.18438 3.51255 5.37656 3.37192 5.50312 3.21724C5.73281 2.94067 5.84531 2.57505 5.84531 2.12505C5.84531 1.68442 5.73281 1.30474 5.50781 0.990674C5.12813 0.475049 4.48594 0.212549 3.58594 0.198486H0V7.6188H3.3375C3.71719 7.6188 4.06406 7.58599 4.3875 7.52036C4.71094 7.45005 4.99219 7.32817 5.22656 7.14536C5.4375 6.99067 5.61094 6.7938 5.75156 6.56411C5.97656 6.21724 6.08437 5.82349 6.08437 5.38286C6.08437 4.9563 5.98594 4.59536 5.79375 4.29536C5.60156 3.99536 5.31563 3.77974 4.93594 3.63911ZM1.47656 1.48755H3.08906C3.44531 1.48755 3.73594 1.52974 3.96563 1.60474C4.23281 1.71724 4.36406 1.94224 4.36406 2.28911C4.36406 2.59849 4.26562 2.8188 4.06406 2.94067C3.8625 3.06255 3.60469 3.12349 3.28125 3.12349H1.47656V1.48755ZM4.03125 6.1938C3.85313 6.28286 3.60469 6.32505 3.28125 6.32505H1.47656V4.34692H3.30469C3.62344 4.35161 3.86719 4.3938 4.04531 4.47349C4.36406 4.6188 4.51875 4.88599 4.51875 5.27036C4.51875 5.72505 4.35938 6.02974 4.03125 6.1938Z" fill="white"/>
</svg>
