<svg width="32" height="32" viewBox="0 0 32 32" fill="none" xmlns="http://www.w3.org/2000/svg">
<rect width="32" height="32" fill="black"/>
<path d="M17.5908 22.3413V9.65869H22.2227C26.002 9.65869 28.252 11.9438 28.252 15.9517V15.9692C28.252 19.9858 26.0195 22.3413 22.2227 22.3413H17.5908ZM19.8584 20.4253H21.9854C24.5342 20.4253 25.9404 18.8696 25.9404 15.978V15.9604C25.9404 13.1304 24.5078 11.5747 21.9854 11.5747H19.8584V20.4253Z" fill="white"/>
<path d="M9.76855 22.561C6.05957 22.561 3.74805 20.0386 3.74805 16.0044V15.9868C3.74805 11.9614 6.07715 9.43896 9.76855 9.43896C13.4688 9.43896 15.7803 11.9614 15.7803 15.9868V16.0044C15.7803 20.0386 13.4775 22.561 9.76855 22.561ZM9.76855 20.5923C12.0625 20.5923 13.4775 18.7993 13.4775 16.0044V15.9868C13.4775 13.1743 12.0361 11.4077 9.76855 11.4077C7.50977 11.4077 6.05957 13.1655 6.05957 15.9868V16.0044C6.05957 18.8257 7.50098 20.5923 9.76855 20.5923Z" fill="white"/>
</svg>
