<svg width="12" height="12" viewBox="0 0 12 12" fill="none" xmlns="http://www.w3.org/2000/svg">
<path d="M9.68439 0H2.32501C1.04532 0 0.00469971 1.04063 0.00469971 2.32031V4.77187V9.68438C0.00469971 10.9641 1.04532 12.0047 2.32501 12.0047H9.68439C10.9641 12.0047 12.0047 10.9641 12.0047 9.68438V4.76719V2.31562C12 1.04062 10.9594 0 9.68439 0ZM10.35 1.38281H10.6172V1.64531V3.41719L8.58751 3.42188L8.58282 1.3875L10.35 1.38281ZM4.28907 4.76719C4.67345 4.2375 5.29689 3.88594 6.00001 3.88594C6.70314 3.88594 7.32657 4.23281 7.71095 4.76719C7.96407 5.11406 8.10939 5.54063 8.10939 6C8.10939 7.1625 7.16251 8.11406 5.99533 8.11406C4.82814 8.11406 3.89064 7.1625 3.89064 6C3.89064 5.54063 4.04064 5.11406 4.28907 4.76719ZM10.8328 9.67969C10.8328 10.3125 10.3172 10.8281 9.68439 10.8281H2.32501C1.6922 10.8281 1.17657 10.3125 1.17657 9.67969V4.76719H2.9672C2.81251 5.14688 2.72345 5.56406 2.72345 6C2.72345 7.80937 4.19532 9.28125 6.0047 9.28125C7.81407 9.28125 9.28595 7.80937 9.28595 6C9.28595 5.56406 9.19689 5.14688 9.0422 4.76719H10.8328V9.67969Z" fill="white"/>
</svg>
