<svg width="12" height="12" viewBox="0 0 12 12" fill="none" xmlns="http://www.w3.org/2000/svg">
<path d="M2.64375 3.53442H0.304688V11.0204H2.64375V3.53442Z" fill="white"/>
<path d="M1.42499 0C0.562488 0 -0.00469971 0.557813 -0.00469971 1.29844C-0.00469971 2.025 0.543738 2.59687 1.39218 2.59687H1.41093C2.29218 2.59687 2.84061 2.02031 2.83593 1.29844C2.81718 0.557813 2.28749 0 1.42499 0Z" fill="white"/>
<path d="M9.03279 3.46411C7.69216 3.46411 6.8531 4.19536 6.69841 4.71099V3.53442H4.06873C4.10154 4.15786 4.06873 11.0204 4.06873 11.0204H6.69841V6.97505C6.69841 6.74536 6.68904 6.52036 6.75466 6.36099C6.93279 5.91099 7.32185 5.44224 8.02029 5.44224C8.93435 5.44224 9.34685 6.13599 9.34685 7.14849V11.0204H12V6.85786C12 4.54224 10.6969 3.46411 9.03279 3.46411Z" fill="white"/>
</svg>
